<svg xmlns="http://www.w3.org/2000/svg" version="1.1" xmlns:xlink="http://www.w3.org/1999/xlink" xmlns:svgjs="http://svgjs.com/svgjs" width="1000" height="1000">
  <rect width="1000" height="1000" rx="200" ry="200" fill="#000000"></rect>
  <g transform="matrix(15.100322769399195,0,0,15.100322769399195,185.16570359087046,99.99999935453843)">
    <svg xmlns="http://www.w3.org/2000/svg" version="1.1" xmlns:xlink="http://www.w3.org/1999/xlink" xmlns:svgjs="http://svgjs.com/svgjs" width="41.699" height="52.979">
      <svg width="41.699" height="52.979" viewBox="0 0 41.699 52.979" xmlns="http://www.w3.org/2000/svg">
        <g id="svgGroup" stroke-linecap="round" fill-rule="evenodd" font-size="9pt" stroke="#ffffff" stroke-width="0.25mm" fill="#ffffff" style="stroke:#ffffff;stroke-width:0.25mm;fill:#ffffff">
          <path d="M 1.221 23.633 L 11.719 0 Q 12.636 0.175 14.061 0.447 A 7481.137 7481.137 0 0 1 14.404 0.513 A 247.562 247.562 0 0 1 16.156 0.854 A 334.935 334.935 0 0 1 18.091 1.245 Q 20.117 1.66 22.29 2.124 A 184.984 184.984 0 0 1 26.514 3.076 Q 28.564 3.564 30.249 4.053 A 70.647 70.647 0 0 1 31.053 4.291 Q 32.202 4.639 33.008 4.932 A 19.626 19.626 0 0 1 35.098 5.88 Q 36.368 6.555 37.329 7.349 A 11.206 11.206 0 0 1 39.458 9.656 A 10.255 10.255 0 0 1 39.99 10.522 A 12.333 12.333 0 0 1 41.252 14.021 A 14.072 14.072 0 0 1 41.333 14.453 A 25.637 25.637 0 0 1 41.648 17.272 A 31.358 31.358 0 0 1 41.699 19.092 L 41.699 43.359 Q 41.699 44.482 41.626 45.532 A 35.415 35.415 0 0 1 41.475 47.148 A 39.53 39.53 0 0 1 41.406 47.705 A 68.097 68.097 0 0 1 41.193 48.871 A 84.986 84.986 0 0 1 40.942 50.122 A 63.02 63.02 0 0 1 40.643 51.483 A 84.746 84.746 0 0 1 40.283 52.979 L 0 52.979 L 0 45.605 L 33.35 45.605 L 33.35 20.215 A 32.286 32.286 0 0 0 33.309 18.535 Q 33.268 17.749 33.185 17.073 A 14.179 14.179 0 0 0 33.032 16.089 A 7.551 7.551 0 0 0 32.665 14.791 Q 32.373 14.039 31.929 13.46 A 4.699 4.699 0 0 0 31.885 13.403 Q 31.055 12.354 29.663 11.719 Q 28.654 11.259 27.222 10.824 A 35.207 35.207 0 0 0 26.074 10.498 A 142.485 142.485 0 0 0 23.901 9.961 A 171.465 171.465 0 0 0 21.582 9.424 A 1908.305 1908.305 0 0 1 19.25 8.899 A 1625.009 1625.009 0 0 1 17.041 8.398 L 11.475 20.947 L 21.289 26.758 L 17.334 33.203 L 1.221 23.633 Z" vector-effect="non-scaling-stroke"></path>
        </g>
      </svg>
    </svg>
  </g>
</svg>